<svg xmlns="http://www.w3.org/2000/svg" xmlns:xlink="http://www.w3.org/1999/xlink" fill="none" version="1.1" width="120" height="120" viewBox="0 0 120 120"><defs><linearGradient x1="0.9642410278320312" y1="0.5237739682197571" x2="0" y2="0.7641520500183105" id="master_svg0_72_00592"><stop offset="0%" stop-color="#AD60AF" stop-opacity="1"/><stop offset="100%" stop-color="#00DBDE" stop-opacity="1"/></linearGradient><linearGradient x1="0.875" y1="0" x2="0.05859375" y2="0.94140625" id="master_svg1_72_00593"><stop offset="0%" stop-color="#F902FF" stop-opacity="1"/><stop offset="100%" stop-color="#00DBDE" stop-opacity="1"/></linearGradient></defs><g><g><rect x="0" y="0" width="120" height="120.0000228881836" rx="24" fill="#000000" fill-opacity="1"/></g><g><path d="M119.9999093902588,59.27217124328613L119.9999093902588,91.32907124328614C114.12140939025879,100.78817124328613,102.61650939025878,105.82357124328614,91.2290093902588,102.98437124328613L48.597309390258786,92.35507124328613C36.12435939025879,89.25357124328613,27.70610339025879,77.60927124328613,28.671140690258788,64.79267124328612C29.63615939025879,51.97617124328613,39.70310939025879,41.723671243286134,52.49990939025879,40.52487124328613C55.546309390258784,25.084331243286133,69.75770939025878,14.434901243286133,85.43250939025879,15.846502243286134C101.10730939025879,17.25809124328613,108.77240939025879,31.909571243286134,109.01130939025879,47.645971243286134C113.71680939025879,49.768471243286136,117.43990939025879,54.07617124328613,119.9999093902588,59.27217124328613Z" fill-rule="evenodd" fill="#D8D8D8" fill-opacity="1" style="mix-blend-mode:passthrough"/><path d="M119.9999093902588,59.27217124328613L119.9999093902588,91.32907124328614C114.12140939025879,100.78817124328613,102.61650939025878,105.82357124328614,91.2290093902588,102.98437124328613L48.597309390258786,92.35507124328613C36.12435939025879,89.25357124328613,27.70610339025879,77.60927124328613,28.671140690258788,64.79267124328612C29.63615939025879,51.97617124328613,39.70310939025879,41.723671243286134,52.49990939025879,40.52487124328613C55.546309390258784,25.084331243286133,69.75770939025878,14.434901243286133,85.43250939025879,15.846502243286134C101.10730939025879,17.25809124328613,108.77240939025879,31.909571243286134,109.01130939025879,47.645971243286134C113.71680939025879,49.768471243286136,117.43990939025879,54.07617124328613,119.9999093902588,59.27217124328613Z" fill-rule="evenodd" fill="url(#master_svg0_72_00592)" fill-opacity="1"/><path d="M119.9999093902588,59.27217124328613L119.9999093902588,91.32907124328614C114.12140939025879,100.78817124328613,102.61650939025878,105.82357124328614,91.2290093902588,102.98437124328613L48.597309390258786,92.35507124328613C36.12435939025879,89.25357124328613,27.70610339025879,77.60927124328613,28.671140690258788,64.79267124328612C29.63615939025879,51.97617124328613,39.70310939025879,41.723671243286134,52.49990939025879,40.52487124328613C55.546309390258784,25.084331243286133,69.75770939025878,14.434901243286133,85.43250939025879,15.846502243286134C101.10730939025879,17.25809124328613,108.77240939025879,31.909571243286134,109.01130939025879,47.645971243286134C113.71680939025879,49.768471243286136,117.43990939025879,54.07617124328613,119.9999093902588,59.27217124328613Z" fill-rule="evenodd" fill="url(#master_svg1_72_00593)" fill-opacity="1"/></g></g></svg>