<svg xmlns="http://www.w3.org/2000/svg" xmlns:xlink="http://www.w3.org/1999/xlink" fill="none" version="1.1" width="120" height="120" viewBox="0 0 120 120"><defs><linearGradient x1="0.875" y1="0" x2="0.05859375" y2="0.94140625" id="master_svg0_69_1347"><stop offset="0%" stop-color="#F902FF" stop-opacity="1"/><stop offset="100%" stop-color="#00DBDE" stop-opacity="1"/></linearGradient></defs><g><g><rect x="0" y="0" width="120" height="120.0000228881836" rx="24" fill="#000000" fill-opacity="1"/></g><g><path d="M111.13668952026367,5.375239700886367Q111.65378952026367,5.795555233276367,112.14688952026367,6.2439222332763675Q112.63988952026367,6.692292233276367,113.10738952026367,7.1673222332763675Q113.57478952026368,7.642362233276367,114.01508952026367,8.142612233276367Q114.45538952026367,8.642852233276367,114.86728952026367,9.166762233276367Q115.27918952026367,9.690672233276366,115.66138952026367,10.236622233276368Q116.04358952026367,10.782582233276367,116.39488952026367,11.348912233276367Q116.74618952026367,11.915232233276367,117.06548952026367,12.500182233276366Q117.38478952026367,13.085132233276367,117.67118952026367,13.686892233276367Q117.95758952026367,14.288662233276368,118.21008952026367,14.905392233276368Q118.46258952026368,15.522142233276368,118.68058952026367,16.151942233276365Q118.89848952026367,16.78174223327637,119.08108952026367,17.422642233276367Q119.26378952026367,18.063542233276365,119.41058952026367,18.713642233276367Q119.55738952026367,19.363642233276366,119.66788952026367,20.02084223327637Q119.77828952026367,20.67814223327637,119.85218952026368,21.340442233276367Q119.92598952026367,22.00274223327637,119.96298952026368,22.668142233276367Q119.99998952026367,23.33354223327637,119.99998952026367,24.000042233276368L119.99998952026367,96.00004223327636Q119.99998952026367,98.01104223327637,119.66528952026367,99.99414223327636Q119.33058952026367,101.97714223327637,118.67058952026368,103.87684223327636L29.52878665924367,80.82314223327637L111.13668952026367,5.375239700886367Z" fill-rule="evenodd" fill="#FFFFFF" fill-opacity="1"/></g><g><path d="M119.82840255126953,21.13522818665614Q120.00000255126953,22.562457203369142,120.00000255126953,23.99997720336914L120.00000255126953,87.48082720336915L63.78984069826953,72.94392720336914L119.82840255126953,21.13522818665614Z" fill-rule="evenodd" fill="#851B1B" fill-opacity="1"/><path d="M119.82840255126953,21.13522818665614Q120.00000255126953,22.562457203369142,120.00000255126953,23.99997720336914L120.00000255126953,87.48082720336915L63.78984069826953,72.94392720336914L119.82840255126953,21.13522818665614Z" fill-rule="evenodd" fill="url(#master_svg0_69_1347)" fill-opacity="1"/></g></g></svg>