<svg xmlns="http://www.w3.org/2000/svg" xmlns:xlink="http://www.w3.org/1999/xlink" fill="none" version="1.1" width="815" height="83.73651123046875" viewBox="0 0 815 83.73651123046875"><g><g><path d="M813.3195,0.082275390625L766.5,0.082275390625C765.671573,0.082275390625,765,0.753848390625,765,1.582275390625L765,52.582275390625C765,53.410675390625,765.671573,54.082275390625,766.5,54.082275390625L790.5,54.082275390625C791.3284,54.082275390625,792,54.753875390625,792,55.582275390625L792,62.582275390625C792,63.410675390625,791.3284,64.082275390625,790.5,64.082275390625L766.5,64.082275390625C765.671573,64.082275390625,765,64.753875390625,765,65.582275390625L765,81.582275390625C765,82.410675390625,765.671573,83.082275390625,766.5,83.082275390625L813.5,83.082275390625C814.3284,83.082275390625,815,82.410675390625,815,81.582275390625L815,36.582275390625C815,35.753875390625,814.3284,35.082275390625,813.5,35.082275390625L789.2437,35.082275390625C788.4153,35.082275390625,787.7437,34.410675390625,787.7437,33.582275390625L787.7437,21.076875390625C787.7437,20.248475390625,788.4153,19.576875390625,789.2437,19.576875390625L813.3195,19.576875390625C814.148,19.576875390625,814.8195,18.905275390625,814.8195,18.076875390625L814.8195,1.582275390625C814.8195,0.753848390625,814.148,0.082275390625,813.3195,0.082275390625" fill-rule="evenodd" fill="#FFFFFF" fill-opacity="1"/></g><g><path d="M691.1171875,0L710.8608875,0C711.6892875,0,712.3608875,0.671573,712.3608875,1.5L712.3608875,62.3989C712.3608875,63.2274,713.0324875,63.8989,713.8608875,63.8989L730.3554875,63.8989C731.1838875,63.8989,731.8554875,63.2274,731.8554875,62.3989L731.8554875,32.908C731.8554875,32.0795,732.5270875,31.408,733.3554875,31.408L753.0991875,31.408C753.9275875,31.408,754.5991875,32.0795,754.5991875,32.908L754.5991875,81.8936C754.5991875,82.722,753.9275875,83.3936,753.0991875,83.3936L731.8554875,83.3936L712.3608875,83.3936L691.1171875,83.3936C690.2887605,83.3936,689.6171875,82.722,689.6171875,81.8936L689.6171875,1.5C689.6171875,0.671573,690.2887605,0,691.1171875,0" fill-rule="evenodd" fill="#FFFFFF" fill-opacity="1"/></g><g><path d="M652.3765125,0L632.6328125,0C631.8043855,0,631.1328125,0.671573,631.1328125,1.5L631.1328125,81.8935C631.1328125,82.7219,631.8043835,83.3935,632.6328125,83.3935L653.8765125,83.3936L681.6184125,83.3935C682.4468125,83.3935,683.1184125,82.722,683.1184125,81.8935L683.1184125,65.3989C683.1184125,64.5705,682.4468125,63.8989,681.6184125,63.8989L655.3765125,63.8989C654.5481125,63.8989,653.8765125,63.2274,653.8765125,62.3989L653.8765125,1.5C653.8765125,0.671573,653.2049125,0,652.3765125,0" fill-rule="evenodd" fill="#FFFFFF" fill-opacity="1"/></g><g><path d="M622.0523125,0L602.3086125,0C601.4802125,0,600.8086125,0.671573,600.8086125,1.5L600.8086125,62.3989C600.8086125,63.2274,600.1370125,63.8989,599.3086125,63.8989L582.8140125,63.8989C581.9856125,63.8989,581.3140125,63.2274,581.3140125,62.3989L581.3140125,32.908C581.3140125,32.0795,580.6424125,31.408,579.8140125,31.408L560.0703125,31.408C559.2418855,31.408,558.5703125,32.0795,558.5703125,32.908L558.5703125,81.8936C558.5703125,82.722,559.2418855,83.3936,560.0703125,83.3936L581.3140125,83.3936L600.8086125,83.3935L622.0523125,83.3936C622.8807125,83.3936,623.5523125,82.722,623.5523125,81.8936L623.5523125,1.5C623.5523125,0.671573,622.8807125,0,622.0523125,0" fill-rule="evenodd" fill="#FFFFFF" fill-opacity="1"/></g><g><path d="M534.7456999999999,0.0000146347L571.1518,0.0000136356C571.9802,0.0000136129,572.6518,0.671587,572.6518,1.50001L572.6518,17.9946C572.6518,18.823,571.9802,19.4946,571.1518,19.4946L536.2456999999999,19.4946C535.4172,19.4946,534.7456999999999,20.1662,534.7456999999999,20.9946L534.7456999999999,62.5823C534.7456999999999,63.4107,535.4172,64.0823,536.2456999999999,64.0823L549.4892,64.0823C550.3176,64.0823,550.9892,64.7538,550.9892,65.5823L550.9892,82.0769C550.9892,82.9053,550.3176,83.5769,549.4892,83.5769L513.5,83.5769C512.671573,83.5769,512,82.9053,512,82.0769L512,64.0833C512,64.0827,512.000437222,64.0823,512.000976562,64.0823C512.0015159,64.0823,512.00195312,64.0818,512.00195312,64.0813L512.00195312,1.50001C512.00195312,0.671588,512.673526,0.0000152404,513.50195,0.0000152176L534.7456999999999,0.0000146347Z" fill-rule="evenodd" fill="#FFFFFF" fill-opacity="1"/></g><g><path d="M470.565965625,0L450.822265625,0C449.993838625,0,449.322265625,0.671573,449.322265625,1.5L449.322265625,81.8938C449.322265625,82.7222,449.993838625,83.3938,450.822265625,83.3938L499.807865625,83.3938C500.636265625,83.3938,501.307865625,82.7222,501.307865625,81.8938L501.307865625,65.3992C501.307865625,64.5707,500.636265625,63.8992,499.807865625,63.8992L473.565965625,63.8992C472.737565625,63.8992,472.065965625,63.2276,472.065965625,62.3992L472.065965625,1.5C472.065965625,0.671573,471.394365625,0,470.565965625,0" fill-rule="evenodd" fill="#FFFFFF" fill-opacity="1"/></g><g><path d="M413.035165625,54.1518L403.038665625,54.1518C402.210165625,54.1518,401.538665625,54.8234,401.538665625,55.6518L401.538665625,62.3992C401.538665625,63.2276,402.210165625,63.8992,403.038665625,63.8992L413.035165625,63.8992C413.863565625,63.8992,414.535165625,63.2276,414.535165625,62.3992L414.535165625,55.6518C414.535165625,54.8234,413.863565625,54.1518,413.035165625,54.1518M358.634765625,0L435.778865625,0C436.60726562499997,0,437.278865625,0.671573,437.278865625,1.5L437.278865625,82.3112C437.278865625,82.909,436.794265625,83.3936,436.196565625,83.3936L384.210965625,83.3938L380.294865625,83.3937C379.466465625,83.3937,378.794965625,82.7222,378.794965625,81.8937L378.794965625,36.1572C378.794965625,35.3288,379.466465625,34.6572,380.294965625,34.6572L413.035165625,34.6572C413.863565625,34.6572,414.535165625,33.9857,414.535165625,33.1572L414.535165625,20.9946C414.535165625,20.1662,413.863565625,19.4946,413.035165625,19.4946L358.634765625,19.4946C357.806338625,19.4946,357.134765625,18.823,357.134765625,17.9946L357.134765625,1.5C357.134765625,0.671573,357.806338625,0,358.634765625,0" fill-rule="evenodd" fill="#FFFFFF" fill-opacity="1"/></g><g><path d="M313.146484375,0L349.135684375,0C349.96408437499997,0,350.635684375,0.671573,350.635684375,1.5L350.635684375,17.9946C350.635684375,18.823,349.96408437499997,19.4946,349.135684375,19.4946L335.890184375,19.4946C335.061784375,19.4946,334.390184375,20.1662,334.390184375,20.9946L334.390184375,62.3992C334.390184375,63.2276,335.061784375,63.8992,335.890184375,63.8992L370.796384375,63.8992C371.624784375,63.8992,372.296384375,64.5707,372.296384375,65.3992L372.296384375,81.8938C372.296384375,82.7222,371.624784375,83.3938,370.796384375,83.3938L313.146484375,83.3938C312.318057375,83.3938,311.646484375,82.7222,311.646484375,81.8938L311.646484375,1.5C311.646484375,0.671573,312.318057375,0,313.146484375,0" fill-rule="evenodd" fill="#FFFFFF" fill-opacity="1"/></g><g><path d="M241.5,0L261.2437,0C262.0721,0,262.7437,0.671573,262.7437,1.5L262.7437,30.991C262.7437,31.8194,263.4153,32.491,264.2437,32.491L275.3223,32.491C276.15070000000003,32.491,276.8223,31.8194,276.8223,30.991L276.8223,1.5C276.8223,0.671573,277.4938,0,278.3223,0L298.06600000000003,0C298.8944,0,299.56600000000003,0.671573,299.56600000000003,1.5L299.56600000000003,81.8936C299.56600000000003,82.722,298.8944,83.3936,298.06600000000003,83.3936L278.3223,83.3936C277.4938,83.3936,276.8223,82.722,276.8223,81.8936L276.8223,53.4856C276.8223,52.6571,276.15070000000003,51.9856,275.3223,51.9856L264.2437,51.9856C263.4153,51.9856,262.7437,52.6571,262.7437,53.4856L262.7437,81.8936C262.7437,82.722,262.0721,83.3936,261.2437,83.3936L241.5,83.3936C240.671573,83.3936,240,82.722,240,81.8936L240,1.5C240,0.671573,240.671573,0,241.5,0" fill-rule="evenodd" fill="#FFFFFF" fill-opacity="1"/></g><g><path d="M227.1499,0L169.5,0C168.671573,0,168,0.671573,168,1.5L168,17.9946C168,18.823,168.671573,19.4946,169.5,19.4946L184.9121,19.4946C185.7405,19.4946,186.4121,20.1662,186.4121,20.9946L186.4121,81.8935C186.4121,82.7219,187.0837,83.3935,187.9121,83.3935L207.6558,83.3935C208.4842,83.3935,209.1558,82.7219,209.1558,81.8935L209.1558,20.9946C209.1558,20.1662,209.8274,19.4946,210.6558,19.4946L227.1499,19.4946C227.9783,19.4946,228.6499,18.823,228.6499,17.9946L228.6499,1.5C228.6499,0.671573,227.9783,0,227.1499,0" fill-rule="evenodd" fill="#FFFFFF" fill-opacity="1"/></g><g><path d="M69.5,-4.1162e-8L155.5,-0.00000240111C156.3284,-0.00000242385,157,0.671571,157,1.5L157,81.5C157,82.3284,156.3284,83,155.5,83L101.5,83C100.6716,83,100,82.3284,100,81.5L100,35.5C100,34.6716,100.6716,34,101.5,34L133.5,34C134.3284,34,135,33.3284,135,32.5L135,20.5C135,19.6716,134.3284,19,133.5,19L69.5,19C68.671573,19,68,18.3284,68,17.5L68,1.5C68,0.671573,68.671573,-1.84288e-8,69.5,-4.1162e-8M133.5,53L124.5,53C123.6716,53,123,53.6716,123,54.5L123,61.5C123,62.3284,123.6716,63,124.5,63L133.5,63C134.3284,63,135,62.3284,135,61.5L135,54.5C135,53.6716,134.3284,53,133.5,53" fill-rule="evenodd" fill="#FFFFFF" fill-opacity="1"/></g><g transform="matrix(1,-2.744130433995906e-8,0,1,0,0.0000018660086951172161)"><rect x="68" y="35" width="22.74370002746582" height="48.73649597167969" rx="1.5" fill="#FFFFFF" fill-opacity="1"/></g><g><path d="M1.5,0L55.5,0C56.3284,0,57,0.671573,57,1.5L57,81.5C57,82.3284,56.3284,83,55.5,83L35.5,83C34.6716,83,34,82.3284,34,81.5L34,20.5C34,19.6716,33.3284,19,32.5,19L24.5,19C23.6716,19,23,19.6716,23,20.5L23,81.5C23,82.3284,22.3284,83,21.5,83L1.5,83C0.671573,83,0,82.3284,0,81.5L0,1.5C0,0.671573,0.671573,0,1.5,0" fill-rule="evenodd" fill="#FFFFFF" fill-opacity="1"/></g></g></svg>