<svg xmlns="http://www.w3.org/2000/svg" xmlns:xlink="http://www.w3.org/1999/xlink" fill="none" version="1.1" width="58.33332824707031" height="58.33332824707031" viewBox="0 0 58.33332824707031 58.33332824707031"><g><path d="M29.1667,58.3333C13.0579,58.3333,0,45.2754,0,29.1667C0,13.0579,13.0579,0,29.1667,0C45.2754,0,58.3333,13.0579,58.3333,29.1667C58.3333,45.2754,45.2754,58.3333,29.1667,58.3333ZM26.25,29.1667L26.25,40.8333C26.25,42.4442,27.5558,43.75,29.1667,43.75C30.7775,43.75,32.0833,42.4442,32.0833,40.8333L32.0833,29.1667C32.0833,27.5558,30.7775,26.25,29.1667,26.25C27.5558,26.25,26.25,27.5558,26.25,29.1667M26.25,17.5C26.25,19.1108,27.5558,20.4167,29.1667,20.4167C30.7775,20.4167,32.0833,19.1108,32.0833,17.5C32.0833,15.8892,30.7775,14.5833,29.1667,14.5833C27.5558,14.5833,26.25,15.8892,26.25,17.5" fill="#FFFFFF" fill-opacity="1" style="mix-blend-mode:passthrough"/></g></svg>