<svg xmlns="http://www.w3.org/2000/svg" xmlns:xlink="http://www.w3.org/1999/xlink" fill="none" version="1.1" width="58.341861724853516" height="55.431270599365234" viewBox="0 0 58.341861724853516 55.431270599365234"><g><path d="M9.72858,5.97333C12.7232,3.29082,16.2406,1.25706,20.0594,0C22.2714,2.77118,25.6253,4.38374,29.1711,4.38084C32.7168,4.38374,36.0708,2.77118,38.2827,6.95387e-7C42.1016,1.25706,45.6189,3.29082,48.6136,5.97333C47.3227,9.27281,47.6039,12.9805,49.3777,16.0475C51.1479,19.1204,54.2217,21.2194,57.7281,21.7496C58.5464,25.6839,58.5464,29.7445,57.7281,33.6788C54.3448,34.1979,51.224,36.1871,49.3777,39.3808C47.603,42.4486,47.3217,46.1576,48.6136,49.4579C45.6187,52.1394,42.1013,54.1722,38.2827,55.4283C36.0702,52.6583,32.7163,51.0468,29.1711,51.0504C25.6253,51.0475,22.2714,52.6601,20.0594,55.4313C16.2408,54.1751,12.7235,52.1423,9.72858,49.4609C11.0204,46.1605,10.7392,42.4515,8.96441,39.3838C7.19361,36.312,4.1199,34.2141,0.614,33.6846C-0.204667,29.7494,-0.204667,25.6877,0.614,21.7525C4.12045,21.2223,7.19427,19.1233,8.96441,16.0504C10.7383,12.9834,11.0195,9.27573,9.72858,5.97626L9.72858,5.97333ZM33.5461,35.2917C37.7668,32.892,39.2266,27.5147,36.799,23.3101C34.3714,19.1054,28.9846,17.6812,24.7961,20.1367C20.6467,22.5692,19.2387,27.8948,21.6437,32.0602C24.0487,36.2257,29.3648,37.669,33.5461,35.2917Z" fill="#FFFFFF" fill-opacity="1" style="mix-blend-mode:passthrough"/></g></svg>