<svg xmlns="http://www.w3.org/2000/svg" xmlns:xlink="http://www.w3.org/1999/xlink" fill="none"
    version="1.1" width="39.999755859375" height="29.46429443359375"
    viewBox="0 0 39.999755859375 29.46429443359375">
    <g transform="matrix(-1,0,0,-1,79.99951171875,58.9285888671875)">
        <path
            d="M63.428355859375,50.193594433593745L75.57105585937501,58.32139443359375Q75.92815585937501,58.60709443359375,76.356755859375,58.67859443359375Q76.785355859375,58.74999443359375,77.14245585937499,58.74999443359375Q78.285355859375,58.74999443359375,79.14245585937499,57.96429443359375Q79.999655859375,57.17859443359375,79.999655859375,55.89289443359375L79.999655859375,32.32143443359375Q79.999655859375,31.03572443359375,79.14245585937499,30.25000843359375Q78.285355859375,29.46429443359375,77.14245585937499,29.46429443359375Q76.785355859375,29.46429443359375,76.356755859375,29.53572393359375Q75.92815585937501,29.60715343359375,75.57105585937501,29.89286743359375L63.428355859375,38.02065443359375L63.428355859375,32.50002443359375Q63.428355859375,31.21431443359375,62.571155859375,30.42859743359375Q61.714055859375,29.64288343359375,60.571155859375,29.64288343359375Q60.214055859375,29.64288343359375,59.785455859375,29.71431243359375Q59.356855859375,29.78574243359375,58.999755859375,30.07145643359375L41.285495859375,41.92859443359375Q40.648351859375,42.36289443359375,40.322636859375,42.965694433593754Q39.996921409375,43.56859443359375,39.999780382375,44.28569443359375Q40.002639359375,45.00289443359375,40.322638859375,45.60859443359375Q40.642637859375,46.21429443359375,41.285495859375,46.64289443359375L58.999755859375,58.49999443359375Q59.356855859375,58.78569443359375,59.785455859375,58.85719443359375Q60.214055859375,58.92859443359375,60.571155859375,58.92859443359375Q61.714055859375,58.92859443359375,62.571155859375,58.14289443359375Q63.428355859375,57.35719443359375,63.428355859375,56.07149443359375L63.428355859375,50.193594433593745Z"
            fill-rule="evenodd" fill="#FFFFFF" fill-opacity="1"
            style="mix-blend-mode:passthrough" />
    </g>
</svg>