<svg xmlns="http://www.w3.org/2000/svg" xmlns:xlink="http://www.w3.org/1999/xlink" fill="none" version="1.1" width="40" height="29.46441650390625" viewBox="0 0 40 29.46441650390625"><g><path d="M23.4287,20.7295L35.5714,28.8572Q35.9285,29.143,36.3571,29.2144Q36.7857,29.2858,37.1428,29.2858Q38.2857,29.2858,39.1428,28.5001Q40,27.7144,40,26.4287L40,2.85715Q40,1.57143,39.1428,0.785717Q38.2857,0,37.1428,0Q36.7857,0,36.3571,0.0714297Q35.9285,0.142859,35.5714,0.428574L23.4287,8.55635L23.4287,3.03574Q23.4287,1.75002,22.5715,0.964306Q21.7144,0.178589,20.5715,0.178589Q20.2144,0.178589,19.7858,0.250019Q19.3572,0.321448,19.0001,0.607163L1.28574,12.4643Q0.648598,12.8986,0.322882,13.5015Q-0.00283447,14.1043,0.0000245231,14.8215Q0.00288351,15.5386,0.322884,16.1444Q0.642884,16.7501,1.28574,17.1786L19.0001,29.0358Q19.3572,29.3215,19.7858,29.393Q20.2144,29.4644,20.5715,29.4644Q21.7144,29.4644,22.5715,28.6787Q23.4287,27.893,23.4287,26.6072L23.4287,20.7295Z" fill-rule="evenodd" fill="#FFFFFF" fill-opacity="0.699999988079071" style="mix-blend-mode:passthrough"/></g></svg>